<?xml version="1.0" encoding="utf-8"?>
<!-- Generator: Adobe Illustrator 24.0.3, SVG Export Plug-In . SVG Version: 6.00 Build 0)  -->
<svg version="1.1" id="Calque_1" xmlns="http://www.w3.org/2000/svg" xmlns:xlink="http://www.w3.org/1999/xlink" x="0px" y="0px"
	 viewBox="0 0 105.9 36" style="enable-background:new 0 0 105.9 36;" xml:space="preserve">
<style type="text/css">
	.st0{fill:#3498DB;}
	.st1{fill:#FDC914;}
	.st2{enable-background:new    ;}
	.st3{font-family:'CheriLiney';}
	.st4{font-size:13.9587px;}
	.st5{fill:#E84646;}
	.st6{fill:#FFFFFF;}
	.st7{font-family:'Cheri';}
	.st8{font-size:3.9981px;}
	.st9{font-size:15.5017px;}
	.st10{font-size:16.5801px;}
</style>
<title>Free</title>
<path class="st0" d="M74.2,3.9C73,11.8,74,16.7,74,18.3c-0.2,0,0,0-0.6,0c-0.2,0-0.3,0-0.6-0.7c-0.7-1.1-1-2-1.3-3
	c0-0.1,0.1,0.3-0.2-0.5C70,10.4,73.4,4.1,74.2,3.9z"/>
<path class="st1" d="M74.3,4.2c0.1,0.4,0.1-0.2,0.8,2c1.6,5,1,8.3-0.4,12.2c0,0.1-0.1,0.1-0.5,0.2C74,14,73.7,8.7,74.3,4.2L74.3,4.2
	z"/>
<path class="st0" d="M77,6c-0.1,0-0.2,0-0.3,0.1c-0.1,0-0.2,0.1-0.3,0.2c0,0,0,0.1-0.1,0.1l0,0h0c0,0,0,0,0,0l0,0c0,0,0,0,0,0
	c0,0,0-0.1,0.1-0.1c0.1-0.2,0.1-0.3,0.3-0.5c0.1,0,0.2-0.1,0.2-0.2c0.1-0.1,0.2-0.2,0.2-0.3c0-0.1,0-0.2,0.1-0.3
	c0-0.1,0-0.2,0.1-0.3c0,0,0,0,0-0.1c0,0,0,0,0.1-0.1c0,0,0.1,0,0.1,0s0.1,0,0.2,0c0.1,0,0.2,0.2,0.2,0.3c0,0.1,0,0.3,0,0.4
	c0,0.1-0.1,0.2-0.2,0.3c-0.1,0.2-0.2,0.3-0.4,0.3C77.2,5.9,77.1,6,77,6C76.9,6,77.1,6,77,6L77,6z"/>
<path class="st0" d="M76.7,2.9c0-0.1-0.1-0.1-0.1-0.2c0,0,0,0-0.1,0c0,0-0.1,0-0.1,0l0,0c0,0,0,0,0,0.1c0,0.1,0,0.2,0,0.3
	c0,0.1,0,0.2,0,0.3c0,0.3,0,0.6,0,0.8c0,0.1,0,0.3,0,0.5c0,0,0,0.1,0,0.1v0c0,0,0,0,0,0l0,0c0,0,0,0,0,0c0-0.1,0.1-0.3,0.2-0.4
	c0,0,0-0.1,0-0.2c0-0.2,0.1-0.4,0.1-0.6s0-0.4,0-0.5C76.7,3.1,76.7,3,76.7,2.9z"/>
<path class="st0" d="M76.6,4.6c0,0.1,0,0.2-0.1,0.3s-0.1,0.1-0.2,0.2c0,0.1,0,0.1-0.1,0.1s0,0-0.1,0l0,0c0,0,0,0,0,0l0,0
	c0,0,0,0,0,0s0,0,0.1,0c0.1-0.1,0.2-0.2,0.1-0.4c0-0.1,0-0.2-0.1-0.3c0,0,0,0,0-0.1l0,0c0,0,0-0.1,0-0.1c0,0,0.1,0,0.1,0
	c0.1,0,0.2,0.1,0.2,0.2c0,0,0,0.1,0,0.2C76.6,4.6,76.6,4.6,76.6,4.6z"/>
<path class="st0" d="M71.3,5.8c0,0-0.1,0-0.1,0c-0.1,0-0.3-0.1-0.4-0.2c-0.1,0-0.2-0.1-0.3-0.2c-0.1-0.1-0.2-0.2-0.2-0.3
	c0-0.1,0-0.2,0-0.4c0-0.1,0.1-0.2,0.2-0.3c0,0,0.1,0,0.2,0c0,0,0.1,0,0.1,0c0,0,0,0,0.1,0.1c0,0,0,0,0,0.1c0,0.1,0.1,0.2,0.1,0.3
	C71,5,71,5.1,71,5.2c0,0.1,0.1,0.2,0.2,0.3c0.1,0,0.1,0.1,0.2,0.2c0.2,0.1,0.6,0.3,0.8,0.5c0,0,0,0.1,0.1,0.1c0,0,0,0,0,0l0,0
	c0,0,0,0,0,0h0l0,0c-0.1-0.1-0.1-0.1-0.2-0.1C72,6.1,71.9,6,71.7,6C71.7,5.9,71.4,5.9,71.3,5.8L71.3,5.8z"/>
<path class="st0" d="M72.2,3.8c0,0.1,0,0.3,0,0.4c0,0.1,0,0.3,0.1,0.5c0,0,0,0.1,0,0.1c0,0.1,0.1,0.2,0.1,0.4v0l0,0h0v0
	c0,0,0-0.1,0-0.1c0-0.1,0-0.3,0-0.4c0-0.2,0-0.5,0-0.7c0-0.1,0-0.1,0-0.2c0-0.1,0-0.1,0-0.2c0,0,0,0,0-0.1l0,0c0,0-0.1,0-0.1,0
	s0,0,0,0c0,0-0.1,0.1-0.1,0.1C72.2,3.7,72.2,3.7,72.2,3.8z"/>
<path class="st0" d="M71.5,4.4c0-0.1,0-0.1,0-0.2c0-0.1,0.1-0.2,0.2-0.2c0,0,0.1,0,0.1,0c0,0,0,0.1,0,0.1c0,0,0,0,0,0c0,0,0,0,0,0.1
	c0,0.1-0.1,0.2-0.1,0.3c0,0.1,0,0.3,0.1,0.4c0,0,0,0,0.1,0c0,0,0,0,0,0l0,0c0,0,0,0,0,0l0,0c0,0,0,0-0.1,0c0,0-0.1,0-0.1-0.1
	s-0.1-0.1-0.1-0.2s-0.1-0.2-0.1-0.3S71.5,4.4,71.5,4.4z"/>
<text transform="matrix(0.9634 0 0 1 53.496 32.056)" class="st2"><tspan x="0" y="0" class="st3 st4">Adv</tspan><tspan x="22.1" y="0" class="st5 st3 st4">i</tspan><tspan x="26.9" y="0" class="st3 st4">sor</tspan></text>
<g>
	<circle class="st0" cx="93.9" cy="11.5" r="6.9"/>
	<text transform="matrix(1 0 0 1 89.324 12.7538)" class="st6 st7 st8">.com</text>
</g>
<text transform="matrix(1 0 0 1 53.0381 16.4703)" class="st7 st9">TR</text>
<text transform="matrix(0.9869 0 0 1 76.1905 17.3805)" class="st7 st10">P</text>
<path class="st0" d="M52.3,27.1c0-0.5-0.4-0.9-0.9-0.9v-6.8l-1.1-6.2c-0.1-0.4-0.2-0.9-0.5-1.2h0.3c0.3,0,0.5-0.2,0.5-0.4v0
	c0-0.2-0.2-0.4-0.5-0.4H49c-0.6-0.4-1.3-0.6-2.1-0.6h-6.1V8.6c2.8-0.9,4.3-1.7,4.3-1.7s-7.4-3.9-18.6-3.9c-6,0-12,0.5-16.1,1.3
	C9.4,3.4,8,3,6.7,3.3c0.4,0.4,0.7,1,0.7,1.6c0,0,0,0.1,0,0.1c-1.9,0.6-3,1.2-3,1.9c0,0.7,1.1,1.4,3,1.9v1.8
	c-0.3,0.1-0.5,0.2-0.8,0.4H5.5c-0.3,0-0.5,0.2-0.5,0.4v0C5,11.8,5.2,12,5.5,12h0.3c-0.2,0.4-0.4,0.8-0.5,1.2l-1.1,6.2v7.3H3.9
	c-0.4,0-0.7,0.3-0.7,0.7V30c0,0.4,0.3,0.7,0.7,0.7h0.4v1.2H9v-1.1c0-1.6,1-3,2.5-3.6c-1.1,0.8-1.8,2-1.8,3.4c0,2.3,2,4.2,4.5,4.2
	s4.5-1.9,4.5-4.2c0-1.4-0.7-2.6-1.8-3.4c1.5,0.6,2.6,2,2.6,3.6v1.1h17.5v-1.1c0-1.6,1-3,2.5-3.6c-1.1,0.8-1.8,2-1.8,3.4
	c0,2.3,2,4.2,4.5,4.2s4.5-1.9,4.5-4.2c0-1.4-0.7-2.6-1.8-3.4c1.5,0.6,2.6,2,2.6,3.6v1.1h2.8c0.6,0,1-0.3,1.2-0.8h0.9L52.3,27.1
	L52.3,27.1z M49,13l0.2,0.9h-0.4c-0.5,0-0.9,0.4-0.9,0.9v2c-1.5-0.3-4.2-0.4-7-0.4V12H48C48.5,12.1,49,12.5,49,13z M28.5,18.3v-0.6
	c3.8-0.1,7.6-0.1,11.3-0.2v0.8H28.5z M33,17c-1.4,0.3-3,0.1-4.5,0V12h11.3v4.4C37.2,16.5,34.7,16.7,33,17z M27.4,12v5
	c-0.4,0-0.8,0-1.2,0c-2.7,0.1-5.3-0.1-8,0c-1,0-2-0.1-3.1-0.2V12H27.4z M39.8,10.4h-6.9c2.7-0.4,5-0.9,6.9-1.5V10.4z M41.7,6.7
	c0,0.2-7.5,0.4-16.8,0.4S8,6.9,8,6.7c0-0.2,7.5-0.4,16.8-0.4S41.7,6.5,41.7,6.7z M8.4,9.1c2.2,0.6,5.2,1,8.6,1.3H8.8
	c-0.1,0-0.2,0-0.3,0C8.4,10.4,8.4,9.1,8.4,9.1z M14.2,12v4.7c-0.4,0-0.8,0-1.2,0c-1.4,0.1-2.9,0.4-4-0.3c-0.2-0.1-0.6-0.3-0.9-0.5
	L8.6,13c0.1-0.5,0.5-0.9,1-1L14.2,12L14.2,12z M9.2,18.3c-0.7,0-1.2-0.5-1.3-1.1c1.8,0.5,3.7,0.5,5.6,0.5c0.3,0,0.5,0,0.8,0v0.5H9.2
	z M6,18.4c0.4,0.9,1.3,1.6,2.3,1.8c-0.9,0-1.7,0-2.6,0C5.8,19.6,5.8,19,6,18.4z M5.3,21.4c0.2,0,0.4,0,0.7,0.1
	c-0.1,1.8-0.2,3.5-0.3,5.3H5.3C5.2,25,5.2,23.2,5.3,21.4z M8,27.7l-0.3-1.1c1.4-0.9,2.8-1.7,4.4-2c1.6-0.3,3.4-0.1,4.6,1
	C13.7,24.9,10.4,25.8,8,27.7z M14.2,32.9c-1.4,0-2.5-1-2.5-2.3s1.1-2.3,2.5-2.3s2.5,1,2.5,2.3C16.6,31.9,15.5,32.9,14.2,32.9z
	 M15.2,18.3v-0.5c4.1,0,8.1,0,12.2-0.1v0.6L15.2,18.3L15.2,18.3z M32.7,30.4c-3.7,0.2-7.4,0.3-11-0.2c-0.2,0-0.2-0.3,0-0.3
	c3.6-0.2,7.3-0.1,10.9,0.3C32.9,30.2,32.9,30.4,32.7,30.4z M42.1,32.9c-1.4,0-2.5-1-2.5-2.3s1.1-2.3,2.5-2.3s2.5,1,2.5,2.3
	C44.5,31.9,43.4,32.9,42.1,32.9z M36.9,26.9l-1.1-0.5c1.5-1,3.1-1.8,4.8-2.2c1.8-0.3,3.7,0,5,1.3C42.7,24.8,39.5,25.3,36.9,26.9z
	 M35.6,20.2c-5.3,0-10.6,0.1-16,0.1c0.4-0.6,1.2-0.6,1.9-0.6c4,0,8,0,12,0c3.1,0,6.1,0,9.2,0.3c0.7,0.1,1.3,0.1,1.9,0.4
	s1.1,0.7,1.3,1.3C42.9,20.2,39.1,20.2,35.6,20.2z M40.8,18.3v-0.8c2.4-0.1,4.8-0.1,7.3-0.2c0.2,0.2,0.4,0.3,0.7,0.3h0.9
	c-0.2,0.4-0.7,0.7-1.2,0.7L40.8,18.3L40.8,18.3z M47.7,21.1c-0.1,0-0.1-0.1-0.1-0.2c-0.2-0.4-0.3-0.7-0.5-1.1
	c0.9-0.3,1.8-0.6,2.7-0.9c0.2,0.4,0.3,0.8,0.5,1.2c-0.8,0.3-1.5,0.6-2.3,0.9C47.9,21.1,47.8,21.1,47.7,21.1z M49.7,22.3
	c0.4,0,0.8,0.8,0.8,1.8c0,1-0.4,1.8-0.8,1.8S49,25.1,49,24.1C49,23.1,49.3,22.3,49.7,22.3z"/>
</svg>
