<?xml version="1.0" encoding="iso-8859-1"?>
<!-- Generator: Adobe Illustrator 21.0.0, SVG Export Plug-In . SVG Version: 6.00 Build 0)  -->
<svg xmlns="http://www.w3.org/2000/svg" xmlns:xlink="http://www.w3.org/1999/xlink" version="1.1" id="Capa_1" x="0px" y="0px" viewBox="0 0 512 512" style="enable-background:new 0 0 512 512;" xml:space="preserve" width="512" height="512">
<g>
	<path style="fill:#388E3C;" d="M262.566,211.187c0,0,13.19,159.33-17.831,297.691c-0.41,1.827-2.039,3.122-3.911,3.122h-47.704   c-3.006,0-4.944-3.192-3.545-5.852c12.973-24.672,60.632-126.756,60.632-294.961H262.566z"/>
	<path style="fill:#4CAF50;" d="M253.574,31.8c1.153,1.49,3.352,1.49,4.505,0C264.71,23.227,285.96,0,321.543,0   c38.904,0,65.716,35.859,65.716,77.62c0,48.11-36.205,104.992-130.094,154.537c-0.833,0.44-1.843,0.44-2.676,0   C160.599,182.612,124.394,125.73,124.394,77.62c0-41.761,26.812-77.62,65.716-77.62C225.693,0,246.943,23.227,253.574,31.8z"/>
	<g>
		<path style="fill:#43A047;" d="M321.543,0c-5.881,0-11.363,0.645-16.459,1.743c30.941,7.635,51.276,39.513,51.276,75.878    c0,45.619-32.562,99.125-115.982,146.785c4.554,2.602,9.251,5.187,14.112,7.752c0.833,0.44,1.843,0.44,2.676,0    C351.054,182.612,387.259,125.73,387.259,77.62C387.259,35.859,360.447,0,321.543,0z"/>
	</g>
	<path style="fill:#4CAF50;" d="M84.918,332.03c0.694-1.736-0.41-3.648-2.26-3.915c-10.645-1.537-41.134-8.555-58.986-39.475   c-19.518-33.806-2.358-74.779,33.292-95.361c41.07-23.712,107.793-20.286,197.193,36.883c0.793,0.507,1.3,1.385,1.343,2.325   c4.81,106.006-25.584,165.501-66.654,189.213c-35.65,20.582-79.714,14.957-99.232-18.849   C71.76,371.93,80.927,342.017,84.918,332.03z"/>
	<path style="fill:#43A047;" d="M255.499,232.487c-0.043-0.94-0.55-1.818-1.343-2.325c-64.176-41.039-116.666-54.382-156.37-49.873   c34.748,3.559,76.695,18.75,125.365,49.873c0.793,0.507,1.3,1.385,1.343,2.325c4.81,106.006-25.584,165.501-66.654,189.213   c-8.809,5.086-18.131,8.565-27.47,10.42c18.62,3.975,39.711,0.413,58.475-10.42C229.915,397.988,260.309,338.493,255.499,232.487z"/>
	<path style="fill:#4CAF50;" d="M426.745,332.03c-0.697-1.736,0.412-3.648,2.271-3.915c10.697-1.537,41.334-8.555,59.272-39.475   c19.613-33.806,2.37-74.779-33.453-95.361c-41.269-23.712-108.316-20.286-198.149,36.883c-0.797,0.507-1.306,1.385-1.349,2.325   c-4.834,106.006,25.708,165.501,66.978,189.213c35.823,20.582,80.1,14.957,99.714-18.849   C439.967,371.93,430.756,342.017,426.745,332.03z"/>
	<path style="fill:#43A047;" d="M454.835,193.279c-18.802-10.803-42.956-15.969-72.176-12.99c15.681,1.772,29.377,6.3,41.021,12.99   c35.823,20.582,53.066,61.555,33.453,95.361c-17.939,30.92-48.576,37.938-59.272,39.475c-1.86,0.267-2.969,2.179-2.271,3.915   c4.011,9.987,13.222,39.9-4.717,70.821c-9.29,16.013-24.117,25.693-40.955,29.27c28.595,5.655,57.343-3.817,72.11-29.27   c17.939-30.92,8.727-60.833,4.717-70.821c-0.697-1.736,0.412-3.648,2.271-3.915c10.697-1.537,41.334-8.555,59.272-39.475   C507.902,254.833,490.658,213.861,454.835,193.279z"/>
	<g>
		<path style="fill:#388E3C;" d="M256.515,64.613c-4.142,0-7.5,3.358-7.5,7.5v83.959c0,4.142,3.358,7.5,7.5,7.5s7.5-3.358,7.5-7.5    V72.113C264.015,67.971,260.657,64.613,256.515,64.613z"/>
		<path style="fill:#388E3C;" d="M188.81,259.341l-81.384,48.419c-3.56,2.118-4.729,6.72-2.611,10.28    c1.403,2.358,3.895,3.667,6.453,3.667c1.304,0,2.625-0.34,3.827-1.056l81.384-48.418c3.56-2.118,4.729-6.721,2.611-10.28    C196.972,258.393,192.371,257.223,188.81,259.341z"/>
		<path style="fill:#388E3C;" d="M405.605,306.73l-81.384-48.419c-3.561-2.118-8.163-0.948-10.28,2.61    c-2.118,3.56-0.949,8.163,2.61,10.28l81.385,48.419c1.202,0.715,2.523,1.056,3.828,1.056c2.557,0,5.05-1.309,6.452-3.666    C410.334,313.45,409.165,308.848,405.605,306.73z"/>
	</g>
</g>















</svg>
