<?xml version="1.0" encoding="iso-8859-1"?>
<!-- Generator: Adobe Illustrator 19.0.0, SVG Export Plug-In . SVG Version: 6.00 Build 0)  -->
<svg version="1.1" id="Capa_1" xmlns="http://www.w3.org/2000/svg" xmlns:xlink="http://www.w3.org/1999/xlink" x="0px" y="0px"
	 viewBox="0 0 511.999 511.999" style="enable-background:new 0 0 511.999 511.999;" xml:space="preserve">
<path style="fill:#43ADDC;" d="M472.398,437.932c-6.835-31.444-34.636-53.886-66.814-53.929h-81.32v17.066
	c-0.06,18.824-15.308,34.072-34.132,34.132h-68.264c-18.824-0.06-34.072-15.308-34.132-34.132v-17.066h-81.32
	c-32.178,0.043-59.979,22.485-66.814,53.929l-13.994,65.534h460.785L472.398,437.932z"/>
<path style="fill:#FDCA6E;" d="M187.736,358.404c-18.85,0-34.132-15.283-34.132-34.132V153.611h34.986
	c37.426,58.759,100.349,96.449,169.808,101.714v68.947c0,18.849-15.283,34.132-34.132,34.132v25.599h22.527
	c28.901-22.561,45.78-57.197,45.737-93.864V148.892c0-76.661-62.743-141.888-139.387-140.343
	c-74.297,1.527-133.721,62.214-133.67,136.529v145.062c-0.026,1.57,0.026,3.132,0.171,4.693
	c1.263,34.994,17.945,67.641,45.566,89.17h22.527V358.404z"/>
<g>
	<path style="fill:#F9F5F2;" d="M187.736,358.404v42.665c0.06,18.824,15.308,34.072,34.132,34.132h68.264
		c18.824-0.06,34.072-15.308,34.132-34.132v-42.665H187.736z"/>
	<path style="fill:#F9F5F2;" d="M188.589,153.611h-34.986v170.661c0,18.849,15.283,34.132,34.132,34.132h136.529
		c18.849,0,34.132-15.283,34.132-34.132v-68.947C288.938,250.051,226.015,212.369,188.589,153.611z"/>
</g>
<g>
	<path style="fill:#231F20;" d="M480.743,436.114c-7.825-35.276-39.022-60.448-75.159-60.644h-37.452
		c21.222-23.346,32.963-53.775,32.929-85.33V148.892c-0.171-40.447-16.511-79.144-45.387-107.465
		C328.403,14.368,291.378-0.556,252.971,0.016C174.023,1.62,110.878,66.113,110.938,145.078v145.062
		c-0.034,1.672,0.026,3.345,0.179,5.009c1.126,29.789,12.706,58.221,32.707,80.322h-37.409
		c-36.146,0.196-67.351,25.386-75.159,60.679l-13.994,65.534c-0.981,4.608,1.954,9.139,6.562,10.129
		c0.589,0.128,1.186,0.188,1.783,0.188h460.785c4.71,0,8.533-3.823,8.533-8.533c0-0.597-0.06-1.195-0.188-1.783L480.743,436.114z
		 M128.124,293.911c-0.111-1.254-0.145-2.517-0.119-3.772V145.078c-0.051-69.672,55.661-126.571,125.316-127.996
		c33.859-0.649,66.524,12.544,90.45,36.513c25.599,25.121,40.08,59.433,40.225,95.297v141.248
		c0.094,33.04-14.668,64.373-40.208,85.33h-10.991v-9.386l0,0c0.154,0,0.29-0.102,0.444-0.137c2.432-0.529,4.804-1.263,7.108-2.21
		c0.811-0.333,1.553-0.776,2.338-1.16c1.57-0.734,3.089-1.562,4.557-2.475c0.853-0.546,1.613-1.16,2.415-1.766
		c1.28-0.939,2.509-1.946,3.669-3.021c0.759-0.717,1.468-1.459,2.176-2.227c1.058-1.143,2.048-2.347,2.97-3.601
		c0.623-0.853,1.22-1.707,1.783-2.56c0.845-1.365,1.604-2.765,2.287-4.215c0.444-0.905,0.904-1.792,1.28-2.731
		c0.631-1.672,1.16-3.379,1.579-5.12c0.222-0.853,0.512-1.655,0.683-2.517c0.538-2.654,0.819-5.359,0.845-8.072v-68.947
		c0.009-4.471-3.43-8.2-7.893-8.533c-66.728-5.231-127.151-41.419-163.263-97.772c-1.57-2.458-4.275-3.942-7.185-3.942h-34.986
		c-4.71,0-8.533,3.823-8.533,8.533v170.661c0.026,2.722,0.307,5.436,0.853,8.106c0.171,0.853,0.469,1.707,0.683,2.56
		c0.427,1.724,0.947,3.413,1.579,5.069c0.375,0.939,0.853,1.826,1.28,2.731c0.683,1.451,1.442,2.85,2.287,4.215
		c0.563,0.853,1.16,1.707,1.783,2.56c0.922,1.254,1.911,2.457,2.969,3.601c0.708,0.768,1.416,1.51,2.176,2.227
		c1.16,1.075,2.389,2.082,3.661,3.021c0.811,0.606,1.579,1.22,2.423,1.766c1.468,0.922,2.987,1.741,4.557,2.475
		c0.785,0.384,1.527,0.853,2.338,1.161c2.304,0.947,4.676,1.681,7.108,2.21c0.154,0,0.29,0.102,0.444,0.137l0,0v9.361h-11.008
		C143.748,355.298,129.148,325.594,128.124,293.911z M349.864,324.272c0,14.139-11.46,25.599-25.599,25.599H187.736
		c-14.139,0-25.599-11.46-25.599-25.599V162.144h21.836c37.776,56.386,98.446,93.309,165.891,100.954V324.272z M196.269,366.937
		h119.463v34.132c0,14.139-11.46,25.599-25.599,25.599h-68.264c-14.139,0-25.599-11.46-25.599-25.599V366.937z M408.289,494.933
		l-7.347-44.073l-16.827,2.816l6.878,41.257H121.007l6.878-41.257l-16.827-2.816l-7.347,44.073H36.155l11.784-55.192
		c6.084-27.459,30.352-47.051,58.477-47.205h72.787v8.533c0.026,23.551,19.114,42.64,42.665,42.665h68.264
		c23.551-0.026,42.64-19.114,42.665-42.665v-8.533h72.787c28.116,0.154,52.384,19.737,58.477,47.179l11.784,55.217H408.289z"/>
	<circle style="fill:#231F20;" cx="204.793" cy="221.858" r="17.066"/>
</g>
<g>
</g>
<g>
</g>
<g>
</g>
<g>
</g>
<g>
</g>
<g>
</g>
<g>
</g>
<g>
</g>
<g>
</g>
<g>
</g>
<g>
</g>
<g>
</g>
<g>
</g>
<g>
</g>
<g>
</g>
</svg>
