<svg xmlns="http://www.w3.org/2000/svg" width="318.339" height="109.609" viewBox="0 0 318.339 109.609">
  <g id="rebranded" transform="translate(-3.2 -2.7)">
    <path id="Path_1" data-name="Path 1" d="M81.422,3.9c-3.914,25.767-.652,41.749-.652,46.968H78.812c-.652,0-.979,0-1.957-2.283a35.6,35.6,0,0,1-4.24-9.785c0-.326.326.979-.652-1.631C67.723,25.1,78.812,4.552,81.422,3.9Z" transform="translate(153.357 2.714)" fill="#3498db"/>
    <path id="Path_2" data-name="Path 2" d="M75.1,4.2c.326,1.3.326-.652,2.609,6.523,5.219,16.308,3.262,27.072-1.3,39.792,0,.326-.326.326-1.631.652-.652-15-1.631-32.291.326-46.968Z" transform="translate(160.003 3.393)" fill="#fdc914"/>
    <path id="Path_3" data-name="Path 3" d="M78.583,9.393a1.2,1.2,0,0,0-.979.326c-.326,0-.652.326-.978.652a.319.319,0,0,1-.326.326h0a.319.319,0,0,1,.326-.326A4.344,4.344,0,0,1,77.6,8.74a.7.7,0,0,0,.652-.652c.326-.326.652-.652.652-.979a1.2,1.2,0,0,1,.326-.979,1.2,1.2,0,0,1,.326-.979V4.826l.326-.326h.978c.326,0,.652.652.652.979v1.3c0,.326-.326.652-.652.979-.326.652-.652.979-1.3.979-.326.326-.652.652-.978.652Z" transform="translate(165.328 4.071)" fill="#3498db"/>
    <path id="Path_4" data-name="Path 4" d="M77.378,3.352c0-.326-.326-.326-.326-.652H76.4V9.55h0a2.473,2.473,0,0,1,.652-1.3V7.593c0-.652.326-1.3.326-1.957V3.352Z" transform="translate(165.555 0)" fill="#3498db"/>
    <path id="Path_5" data-name="Path 5" d="M77.731,5.279a1.2,1.2,0,0,1-.326.979l-.652.652c0,.326,0,.326-.326.326h0c.326-.326.652-.652.326-1.3a1.2,1.2,0,0,0-.326-.979V4.626h0V4.3h.326a.7.7,0,0,1,.652.652V5.6Z" transform="translate(164.876 3.619)" fill="#3498db"/>
    <path id="Path_6" data-name="Path 6" d="M73.562,8.966h-.326a2.473,2.473,0,0,1-1.3-.652c-.326,0-.652-.326-.979-.652s-.652-.652-.652-.979v-1.3c0-.326.326-.652.652-.979h.978l.326.326v.326c0,.326.326.652.326.979s0,.652,0,.979.326.652.652.979c.326,0,.326.326.652.652A11.443,11.443,0,0,1,76.5,10.271a.319.319,0,0,0,.326.326h0c-.326-.326-.326-.326-.652-.326a1.7,1.7,0,0,0-1.3-.652c0-.326-.978-.326-1.3-.652Z" transform="translate(151.758 3.845)" fill="#3498db"/>
    <path id="Path_7" data-name="Path 7" d="M72.2,4.479v1.3a3.546,3.546,0,0,0,.326,1.631V7.74c0,.326.326.652.326,1.3h0V3.5h-.326l-.326.326Z" transform="translate(156.056 1.809)" fill="#3498db"/>
    <path id="Path_8" data-name="Path 8" d="M71.5,5.3V4.652A.7.7,0,0,1,72.152,4h.326v.326h0v.326c0,.326-.326.652-.326.979a1.961,1.961,0,0,0,.326,1.3h0a.319.319,0,0,1-.326-.326c0-.326-.326-.326-.326-.652S71.5,5.3,71.5,4.979Z" transform="translate(154.472 2.94)" fill="#3498db"/>
    <text id="Advisor" transform="translate(168.249 97.31)" font-size="41" font-family="CheriLiney, Cheri Liney"><tspan x="0" y="0">Adv</tspan><tspan y="0" fill="red">i</tspan><tspan y="0">sor</tspan></text>
    <g id="Group_1" data-name="Group 1" transform="translate(276.528 8.897)">
      <circle id="Ellipse_2" data-name="Ellipse 2" cx="22.506" cy="22.506" r="22.506" fill="#3498db"/>
      <text id="_.com" data-name=".com" transform="translate(7.58 25.81)" fill="#fff" font-size="11" font-family="Cheri"><tspan x="0" y="0">.com</tspan></text>
    </g>
    <text id="TR" transform="translate(165.756 46.212)" font-size="48" font-family="Cheri"><tspan x="0" y="0">TR</tspan></text>
    <text id="P" transform="translate(241.271 49.92)" font-size="52" font-family="Cheri"><tspan x="0" y="0">P</tspan></text>
    <path id="Path_9" data-name="Path 9" d="M163.348,81.606a2.923,2.923,0,0,0-2.936-2.936V56.491l-3.588-20.222c-.326-1.3-.652-2.936-1.631-3.914h.979a1.492,1.492,0,0,0,1.631-1.3h0a1.492,1.492,0,0,0-1.631-1.3h-3.588a12.058,12.058,0,0,0-6.85-1.957h-19.9V21.265a93.585,93.585,0,0,0,14.025-5.545S115.728,3,79.2,3c-19.57,0-39.14,1.631-52.513,4.24A13.67,13.67,0,0,0,14.616,3.979,7.7,7.7,0,0,1,16.9,9.2v.326c-6.2,1.957-9.785,3.914-9.785,6.2s3.588,4.566,9.785,6.2v5.871a9.766,9.766,0,0,0-2.609,1.3H10.7a1.492,1.492,0,0,0-1.631,1.3h0c0,1.3.652,1.957,1.631,1.957h.979a19.952,19.952,0,0,0-1.631,3.914L6.462,56.491V80.3H5.483A2.229,2.229,0,0,0,3.2,82.585v8.48a2.229,2.229,0,0,0,2.283,2.283h1.3v3.914h15.33V93.675a12.689,12.689,0,0,1,8.154-11.742A13.609,13.609,0,0,0,24.4,93.022c0,7.5,6.523,13.7,14.678,13.7s14.678-6.2,14.678-13.7a13.609,13.609,0,0,0-5.871-11.09c4.893,1.957,8.48,6.523,8.48,11.742v3.588h57.079V93.675A12.689,12.689,0,0,1,121.6,81.933a13.609,13.609,0,0,0-5.871,11.09c0,7.5,6.523,13.7,14.678,13.7s14.678-6.2,14.678-13.7a13.609,13.609,0,0,0-5.871-11.09c4.893,1.957,8.48,6.523,8.48,11.742v3.588h9.133a3.933,3.933,0,0,0,3.914-2.609h2.936l-.326-13.047Zm-10.764-45.99.652,2.936h-1.3A2.923,2.923,0,0,0,149,41.488v6.523c-4.893-.978-13.7-1.3-22.832-1.3V32.355h23.158C150.954,32.681,152.585,33.986,152.585,35.617ZM85.72,52.9V50.947c12.394-.326,24.789-.326,36.857-.652V52.9Zm14.678-4.24c-4.566.979-9.785.326-14.678,0V32.355h36.857V46.706A180.508,180.508,0,0,0,100.4,48.663ZM82.133,32.355V48.663H78.219c-8.807.326-17.287-.326-26.093,0-3.262,0-6.523-.326-10.111-.652V32.355Zm40.445-5.219H100.072a147.675,147.675,0,0,0,22.506-4.893Zm6.2-12.068c0,.652-24.463,1.3-54.8,1.3s-55.122-.652-55.122-1.3,24.463-1.3,54.8-1.3S128.774,14.416,128.774,15.068ZM20.161,22.9c7.176,1.957,16.961,3.262,28.05,4.24H20.487C20.161,27.136,20.161,22.9,20.161,22.9Zm18.918,9.459v15.33H35.164c-4.566.326-9.459,1.3-13.047-.978a29.4,29.4,0,0,1-2.936-1.631l1.631-9.459a4.19,4.19,0,0,1,3.262-3.262ZM22.77,52.9a4.243,4.243,0,0,1-4.24-3.588C24.4,50.947,30.6,50.947,36.8,50.947H39.4v1.631H22.77Zm-10.437.326a10.631,10.631,0,0,0,7.5,5.871h-8.48A36.763,36.763,0,0,1,12.333,53.23ZM10.05,63.015a6.368,6.368,0,0,1,2.283.326c-.326,5.871-.652,11.416-.979,17.287h-1.3A158.639,158.639,0,0,1,10.05,63.015Zm8.807,20.549-.979-3.588c4.566-2.936,9.133-5.545,14.351-6.523s11.09-.326,15,3.262C37.448,74.431,26.684,77.366,18.856,83.563Zm20.222,16.961c-4.566,0-8.154-3.262-8.154-7.5s3.588-7.5,8.154-7.5,8.154,3.262,8.154,7.5A8.174,8.174,0,0,1,39.078,100.524ZM42.34,52.9V51.273c13.373,0,26.42,0,39.792-.326V52.9ZM99.419,92.37c-12.068.652-24.136.979-35.878-.652a.489.489,0,1,1,0-.978,215.9,215.9,0,0,1,35.552.978C100.072,91.718,100.072,92.37,99.419,92.37Zm30.66,8.154c-4.566,0-8.154-3.262-8.154-7.5s3.588-7.5,8.154-7.5,8.154,3.262,8.154,7.5A8.174,8.174,0,0,1,130.079,100.524Zm-16.961-19.57-3.588-1.631a48.588,48.588,0,0,1,15.656-7.176c5.871-.978,12.068,0,16.308,4.24A37.83,37.83,0,0,0,113.118,80.954ZM108.878,59.1c-17.287,0-34.574.326-52.187.326,1.3-1.957,3.914-1.957,6.2-1.957h39.14c10.111,0,19.9,0,30.007.978,2.283.326,4.24.326,6.2,1.3a7.721,7.721,0,0,1,4.24,4.24C132.688,59.1,120.294,59.1,108.878,59.1Zm16.961-6.2V50.294c7.828-.326,15.656-.326,23.81-.652a2.961,2.961,0,0,0,2.283.979h2.936a4.525,4.525,0,0,1-3.914,2.283Zm22.506,9.133c-.326,0-.326-.326-.326-.652-.652-1.3-.979-2.283-1.631-3.588l8.807-2.936c.652,1.3.979,2.609,1.631,3.914-2.609.979-4.893,1.957-7.5,2.936A1.2,1.2,0,0,1,148.345,62.036Zm6.523,3.914c1.3,0,2.609,2.609,2.609,5.871s-1.3,5.871-2.609,5.871-2.283-2.609-2.283-5.871S153.563,65.95,154.868,65.95Z" transform="translate(0 0.678)"/>
  </g>
</svg>
