<?xml version="1.0" encoding="utf-8"?>
<!-- Generator: Adobe Illustrator 24.0.3, SVG Export Plug-In . SVG Version: 6.00 Build 0)  -->
<svg version="1.1" id="Layer_1" xmlns="http://www.w3.org/2000/svg" xmlns:xlink="http://www.w3.org/1999/xlink" x="0px" y="0px"
	 viewBox="0 0 24 24" style="enable-background:new 0 0 24 24;" xml:space="preserve">
<style type="text/css">
	.st0{fill:#FFFFFF;}
</style>
<path class="st0" d="M16.9,3.3C16.6,2.5,15.9,2,15,2c-1.3,0-2.3,1.2-1.9,2.6C14.2,4.2,15.4,3.5,16.9,3.3z M24,17c0,2.8-2.2,5-5,5
	c-4,0-4.2-4.1-7-4.1S9,22,5,22c-2.8,0-5-2.2-5-5c0-2.1,1.9-6.4,3.9-10.8c1.6-3.5,4.8-1.3,6.8-0.6c0.8,0.3,1.7,0.3,2.5,0
	c2.1-0.7,5.2-2.9,6.8,0.6C22.1,10.5,24,14.9,24,17z M8,17c0-1.7-1.3-3-3-3s-3,1.3-3,3s1.3,3,3,3S8,18.7,8,17z M13,15
	c0-0.6-0.4-1-1-1s-1,0.4-1,1s0.4,1,1,1S13,15.6,13,15z M22,17c0-1.7-1.3-3-3-3s-3,1.3-3,3s1.3,3,3,3S22,18.7,22,17z M9,2
	C8.1,2,7.4,2.5,7.1,3.3c1.4,0.2,2.7,0.9,3.8,1.3C11.3,3.2,10.3,2,9,2z"/>
</svg>
