<svg xmlns="http://www.w3.org/2000/svg" xmlns:xlink="http://www.w3.org/1999/xlink" width="200" height="200" viewBox="0 0 200 200">
  <defs>
    <clipPath id="clip-path">
      <rect id="Rectangle_36" data-name="Rectangle 36" width="200" height="200" transform="translate(1117.25 7876.25)" fill="none"/>
    </clipPath>
  </defs>
  <g id="Mask_Group_18" data-name="Mask Group 18" transform="translate(-1117.25 -7876.25)" clip-path="url(#clip-path)">
    <path id="Summer_07" d="M212.3,147.714a3.946,3.946,0,0,0-3.539-3.924V114.619l-4.407-26.873a14.291,14.291,0,0,0-1.988-5.267h1.3a1.939,1.939,0,0,0,1.939-1.939V80.5a1.939,1.939,0,0,0-1.939-1.939h-4.939a14.224,14.224,0,0,0-8.441-2.77H165.573V68.077A114.268,114.268,0,0,0,183.137,60.6s-29.914-17.017-75.585-17.017c-24.541,0-48.637,2.2-65.681,5.694a17.463,17.463,0,0,0-14.855-4.351A11.55,11.55,0,0,1,29.982,51.9c.008.125.019.253.026.381-7.7,2.46-12.267,5.3-12.267,8.316s4.535,5.837,12.2,8.294v7.916a14.3,14.3,0,0,0-3.154,1.751h-5.03A1.939,1.939,0,0,0,19.813,80.5v.038a1.939,1.939,0,0,0,1.939,1.939h1.385a14.16,14.16,0,0,0-1.988,5.267l-4.407,26.873v31.51H15.248a2.942,2.942,0,0,0-2.943,2.943v11.165a2.942,2.942,0,0,0,2.943,2.943h1.494V168.3H36.049v-4.562a17.076,17.076,0,0,1,10.12-15.595,18.3,18.3,0,1,0,21.938-.121,17.078,17.078,0,0,1,10.38,15.715V168.3h71.08v-4.562a17.076,17.076,0,0,1,10.12-15.595,18.3,18.3,0,1,0,21.938-.121A17.078,17.078,0,0,1,192,163.743V168.3h11.554a5.2,5.2,0,0,0,4.939-3.566H212.3V147.714ZM199.113,86.822l.683,3.852h-1.785a3.759,3.759,0,0,0-3.758,3.758v8.5c-6.237-1.389-17.244-1.811-28.68-1.532V82.483h29.454A5.434,5.434,0,0,1,199.113,86.822Zm-83.766,22.915v-2.6q23.041-.34,46.075-.917v3.517Zm18.315-5.528c-5.852,1.1-12.135.528-18.315.14V82.479h46.075V101.53A207.931,207.931,0,0,0,133.663,104.209ZM111.2,82.479v21.658c-1.589-.057-3.158-.072-4.705-.011-10.908.415-21.59-.332-32.5.083a75.971,75.971,0,0,1-12.44-1.049V82.479Zm50.222-6.686H133.361a176.492,176.492,0,0,0,28.061-6.347Zm7.6-15.961c0,1-30.673,1.815-68.507,1.815s-68.507-.811-68.507-1.815,30.673-1.815,68.507-1.815S169.026,58.828,169.026,59.832ZM33.91,70.061c9,2.422,21.13,4.4,34.834,5.732H35.223c-.441,0-.879.019-1.313.06V70.061Zm23.5,12.418v20.262a35.565,35.565,0,0,0-4.954-.03c-5.566.389-11.742,1.872-16.357-1.268a31.6,31.6,0,0,0-3.732-2.117l2.215-12.5a5.448,5.448,0,0,1,4.09-4.343H57.41ZM37.023,109.737a5.455,5.455,0,0,1-5.388-4.626c7.282,2.128,15.07,2.256,22.7,2.313,1.026.008,2.049.011,3.075.015v2.3Zm-13.153.615a13.551,13.551,0,0,0,9.358,7.679q-5.19-.074-10.384-.143A57.038,57.038,0,0,1,23.869,110.352Zm-2.849,12.855c.909.094,1.819.185,2.724.279q-.532,11.32-1.06,22.643H20.953A223.309,223.309,0,0,1,21.021,123.207Zm11.037,26.884-1.17-4.856c5.543-3.766,11.422-7.309,17.979-8.7s13.961-.287,18.847,4.3A43.388,43.388,0,0,0,32.057,150.091Zm25.16,22.666a10.025,10.025,0,1,1,10.025-10.025A10.027,10.027,0,0,1,57.217,172.757Zm4.339-63.02v-2.275q24.824.108,49.644-.268v2.539H61.556Zm71.227,52.308c-14.968.917-30.291,1.506-44.592-.883-.841-.14-.755-1.158.1-1.2a279.856,279.856,0,0,1,44.517,1.2A.447.447,0,1,1,132.784,162.045Zm37.947,10.712a10.025,10.025,0,1,1,10.025-10.025A10.027,10.027,0,0,1,170.731,172.757ZM149.79,146.771l-4.3-2.3c6-4.12,12.444-7.931,19.6-9.275s15.206.177,20.228,5.452A44.976,44.976,0,0,0,149.79,146.771Zm-5.437-28.59-64.911.441c1.543-2.373,4.864-2.607,7.694-2.6l48.984.2c12.493.053,25.009.106,37.434,1.4a25.734,25.734,0,0,1,7.8,1.7,9.558,9.558,0,0,1,5.445,5.554C173.987,118.14,158.83,118.079,144.352,118.181Zm21.217-8.444v-3.615q14.767-.357,29.537-.751a3.747,3.747,0,0,0,2.9,1.37h3.524a5.439,5.439,0,0,1-4.864,3h-31.1Zm28.058,11.95a1.369,1.369,0,0,1-.585-.758q-1.024-2.309-2.053-4.615l11.108-3.807q.979,2.513,1.955,5.03l-9.335,4.007A1.375,1.375,0,0,1,193.627,121.687Zm8.312,5.271c1.766,0,3.2,3.483,3.2,7.777s-1.43,7.777-3.2,7.777-3.2-3.483-3.2-7.777S200.174,126.958,201.939,126.958Z" transform="translate(1104.946 7863.94)"/>
  </g>
</svg>
